<?xml version="1.0" encoding="UTF-8"?>
<svg id="Layer_1" xmlns="http://www.w3.org/2000/svg" viewBox="0 0 2000 615.9">
  <defs>
    <style>
      .cls-1 {
        fill: #b80c08;
      }
    </style>
  </defs>
  <path class="cls-1" d="M553.64,247.82l-18.79,74.04h180.55l18.77-74.04h-180.52Z"/>
  <polygon class="cls-1" points="1142.96 91.16 1191.2 13.43 838.87 13.43 725.96 452.83 815.92 452.83 858.82 283.92 1023.33 283.92 1071.58 206.21 878.5 206.21 908.53 91.16 1142.96 91.16"/>
  <path class="cls-1" d="M1334.14,13.43h-98.44l-272.69,439.4h96.04l57.29-96.08h164.25l7.33,96.08h91.19l-44.98-439.4ZM1159.06,285.15l102.89-172.56,13.17,172.56h-116.06Z"/>
  <polygon class="cls-1" points="2000 13.43 1958.4 94.83 1860.41 94.83 1789.85 370.25 1789.85 370.27 1768.69 452.83 1678.73 452.83 1770.45 94.83 1639.93 94.83 1681.53 13.43 2000 13.43"/>
  <polygon class="cls-1" points="1663.5 232.24 1429.48 458.45 1532.1 257.65 1397.29 226.53 1644.66 -.3 1543.12 198.03 1663.5 232.24"/>
  <path class="cls-1" d="M702.57,13.43l-81.01,81.02c-13.37,13.37-31.51,20.89-50.42,20.89h-298.27l-110.72,110.74,54.24,54.24,37.6,37.6,60.76-60.77-75.23.03,49.9-49.9c11.05-11.05,26.03-17.25,41.65-17.25h194.85l-.3.29h.07L253.99,462.02,18.07,226.07,199.35,44.76c20.06-20.05,47.27-31.33,75.63-31.33h427.58Z"/>
</svg>